<svg width="51" height="51" viewBox="0 0 51 51" fill="none" xmlns="http://www.w3.org/2000/svg">
<g clip-path="url(#clip0_32_2014)">
<path fill-rule="evenodd" clip-rule="evenodd" d="M25.2768 50.555C39.237 50.555 50.5539 39.2381 50.5539 25.2779C50.5539 11.3178 39.237 0.000915527 25.2768 0.000915527C11.3167 0.000915527 -0.000183105 11.3178 -0.000183105 25.2779C-0.000183105 39.2381 11.3167 50.555 25.2768 50.555Z" fill="white"/>
<path d="M18.0994 23.2727V32H16.2542V25.0241H16.203L14.2045 26.277V24.6406L16.365 23.2727H18.0994ZM23.3611 32.1193C22.7588 32.1193 22.2219 32.0085 21.7503 31.7869C21.2815 31.5653 20.9094 31.2599 20.6338 30.8707C20.3582 30.4815 20.2148 30.0355 20.2034 29.5327H21.9932C22.0131 29.8707 22.1551 30.1449 22.4193 30.3551C22.6835 30.5653 22.9974 30.6705 23.3611 30.6705C23.6508 30.6705 23.9065 30.6065 24.1281 30.4787C24.3526 30.348 24.5273 30.1676 24.6523 29.9375C24.7801 29.7045 24.844 29.4375 24.844 29.1364C24.844 28.8295 24.7787 28.5597 24.648 28.3267C24.5202 28.0937 24.3426 27.9119 24.1153 27.7812C23.8881 27.6506 23.6281 27.5838 23.3355 27.581C23.0798 27.581 22.8312 27.6335 22.5898 27.7386C22.3511 27.8437 22.1651 27.9872 22.0315 28.169L20.3909 27.875L20.8043 23.2727H26.1395V24.7812H22.3256L22.0997 26.9673H22.1508C22.3043 26.7514 22.5358 26.5724 22.8454 26.4304C23.1551 26.2884 23.5017 26.2173 23.8852 26.2173C24.4108 26.2173 24.8795 26.3409 25.2915 26.5881C25.7034 26.8352 26.0287 27.1747 26.2673 27.6065C26.506 28.0355 26.6239 28.5298 26.621 29.0895C26.6239 29.6776 26.4875 30.2003 26.2119 30.6577C25.9392 31.1122 25.5571 31.4702 25.0656 31.7315C24.577 31.9901 24.0088 32.1193 23.3611 32.1193ZM32.6849 30.3636V29.9034C32.6849 29.554 32.7588 29.233 32.9065 28.9403C33.0571 28.6449 33.2744 28.4091 33.5585 28.233C33.8454 28.054 34.1949 27.9645 34.6068 27.9645C35.0244 27.9645 35.3753 28.0526 35.6594 28.2287C35.9463 28.4048 36.1622 28.6406 36.3071 28.9361C36.4548 29.2287 36.5287 29.5511 36.5287 29.9034V30.3636C36.5287 30.7131 36.4548 31.0355 36.3071 31.331C36.1594 31.6236 35.942 31.858 35.6551 32.0341C35.3682 32.2131 35.0187 32.3026 34.6068 32.3026C34.1892 32.3026 33.8383 32.2131 33.5543 32.0341C33.2702 31.858 33.0543 31.6236 32.9065 31.331C32.7588 31.0355 32.6849 30.7131 32.6849 30.3636ZM33.925 29.9034V30.3636C33.925 30.5653 33.9733 30.7557 34.0699 30.9347C34.1693 31.1136 34.3483 31.2031 34.6068 31.2031C34.8653 31.2031 35.0415 31.1151 35.1352 30.9389C35.2318 30.7628 35.2801 30.571 35.2801 30.3636V29.9034C35.2801 29.696 35.2347 29.5028 35.1437 29.3239C35.0528 29.1449 34.8739 29.0554 34.6068 29.0554C34.3511 29.0554 34.1736 29.1449 34.0741 29.3239C33.9747 29.5028 33.925 29.696 33.925 29.9034ZM28.2062 25.3693V24.9091C28.2062 24.5568 28.2815 24.2344 28.4321 23.9418C28.5827 23.6463 28.8 23.4105 29.0841 23.2344C29.371 23.0582 29.7176 22.9702 30.1239 22.9702C30.5443 22.9702 30.8966 23.0582 31.1807 23.2344C31.4648 23.4105 31.6807 23.6463 31.8284 23.9418C31.9761 24.2344 32.05 24.5568 32.05 24.9091V25.3693C32.05 25.7216 31.9747 26.044 31.8241 26.3366C31.6764 26.6293 31.4591 26.8636 31.1722 27.0398C30.8881 27.2131 30.5386 27.2997 30.1239 27.2997C29.7091 27.2997 29.3582 27.2116 29.0713 27.0355C28.7872 26.8565 28.5713 26.6222 28.4236 26.3324C28.2787 26.0398 28.2062 25.7187 28.2062 25.3693ZM29.4548 24.9091V25.3693C29.4548 25.5767 29.5031 25.7685 29.5997 25.9446C29.6991 26.1207 29.8739 26.2088 30.1239 26.2088C30.3852 26.2088 30.5628 26.1207 30.6565 25.9446C30.7531 25.7685 30.8014 25.5767 30.8014 25.3693V24.9091C30.8014 24.7017 30.756 24.5085 30.6651 24.3295C30.5741 24.1506 30.3937 24.0611 30.1239 24.0611C29.871 24.0611 29.6963 24.152 29.5997 24.3338C29.5031 24.5156 29.4548 24.7074 29.4548 24.9091ZM28.7687 32L34.7687 23.2727H35.8852L29.8852 32H28.7687Z" fill="black"/>
<path fill-rule="evenodd" clip-rule="evenodd" d="M25.2719 0.000780106C24.2615 0.000780106 23.4424 0.820847 23.4424 1.83245C23.4424 2.84405 24.2615 3.66412 25.2719 3.66412C37.1458 3.66412 46.7889 13.2657 46.8587 25.1476C46.8647 26.1592 47.6886 26.9744 48.6989 26.9685C49.7093 26.9625 50.5235 26.1376 50.5175 25.1261C50.4358 11.2296 39.1584 0.000780106 25.2719 0.000780106Z" fill="#00CC39"/>
</g>
<defs>
<clipPath id="clip0_32_2014">
<rect width="50.5541" height="50.5541" fill="white"/>
</clipPath>
</defs>
</svg>
