<svg width="42" height="44" viewBox="0 0 42 44" fill="none" xmlns="http://www.w3.org/2000/svg">
<rect x="-0.75" y="1.25" width="41.5" height="41.5" rx="20.75" fill="#E2E2E2" stroke="white" stroke-width="1.5"/>
<path d="M18.1001 21.1818C18.1001 22.4356 17.8653 23.5095 17.3956 24.4034C16.9297 25.2936 16.2933 25.9754 15.4865 26.4489C14.6835 26.9223 13.7725 27.1591 12.7536 27.1591C11.7346 27.1591 10.8217 26.9223 10.0149 26.4489C9.21188 25.9716 8.57552 25.2879 8.10582 24.3977C7.63991 23.5038 7.40696 22.4318 7.40696 21.1818C7.40696 19.928 7.63991 18.8561 8.10582 17.9659C8.57552 17.072 9.21188 16.3883 10.0149 15.9148C10.8217 15.4413 11.7346 15.2045 12.7536 15.2045C13.7725 15.2045 14.6835 15.4413 15.4865 15.9148C16.2933 16.3883 16.9297 17.072 17.3956 17.9659C17.8653 18.8561 18.1001 19.928 18.1001 21.1818ZM15.9808 21.1818C15.9808 20.2992 15.8426 19.5549 15.5661 18.9489C15.2933 18.339 14.9145 17.8788 14.4297 17.5682C13.9448 17.2538 13.3861 17.0966 12.7536 17.0966C12.121 17.0966 11.5623 17.2538 11.0774 17.5682C10.5926 17.8788 10.2119 18.339 9.93537 18.9489C9.66264 19.5549 9.52628 20.2992 9.52628 21.1818C9.52628 22.0644 9.66264 22.8106 9.93537 23.4205C10.2119 24.0265 10.5926 24.4867 11.0774 24.8011C11.5623 25.1117 12.121 25.267 12.7536 25.267C13.3861 25.267 13.9448 25.1117 14.4297 24.8011C14.9145 24.4867 15.2933 24.0265 15.5661 23.4205C15.8426 22.8106 15.9808 22.0644 15.9808 21.1818ZM20.093 15.3636H22.6726L26.1271 23.7955H26.2635L29.718 15.3636H32.2976V27H30.2749V19.0057H30.1669L26.951 26.9659H25.4396L22.2237 18.9886H22.1158V27H20.093V15.3636Z" fill="#101928"/>
</svg>
