<svg width="46" height="46" viewBox="0 0 46 46" fill="none" xmlns="http://www.w3.org/2000/svg">
<path d="M5.75 42.1666L8.625 39.2916L11.5 42.1666L14.375 39.2916L17.25 42.1666L20.2783 39.1383C20.5467 39.5025 20.8533 39.8283 21.1792 40.1541C23.69 42.665 27.1017 44.0833 30.6667 44.0833C38.065 44.0833 44.0833 38.0841 44.0833 30.6666C44.0833 27.1591 42.7033 23.7858 40.25 21.275V3.83331L37.375 6.70831L34.5 3.83331L31.625 6.70831L28.75 3.83331L25.875 6.70831L23 3.83331L20.125 6.70831L17.25 3.83331L14.375 6.70831L11.5 3.83331L8.625 6.70831L5.75 3.83331V42.1666ZM39.9625 30.6666C39.9625 31.8933 39.7325 33.1008 39.2917 34.2316C38.7933 35.3433 38.1033 36.4166 37.2408 37.2408C36.4167 38.1033 35.3433 38.7933 34.2317 39.2916C33.1008 39.7325 31.8933 39.9625 30.6667 39.9625C25.53 39.9625 21.3708 35.8033 21.3708 30.6666C21.3708 28.1941 22.3483 25.875 24.0925 24.0925C25.875 22.3483 28.1942 21.3708 30.6667 21.3708C35.7842 21.3708 39.9625 25.53 39.9625 30.6666ZM28.75 31.9891V24.9166H31.625V30.3216L36.3017 33.0241L34.8642 35.5158L28.75 31.9891Z" fill="#FFD600"/>
</svg>
