<svg width="52" height="51" viewBox="0 0 52 51" fill="none" xmlns="http://www.w3.org/2000/svg">
<g clip-path="url(#clip0_34_514)">
<path fill-rule="evenodd" clip-rule="evenodd" d="M25.9997 50.6631C39.9598 50.6631 51.2767 39.3462 51.2767 25.3861C51.2767 11.426 39.9598 0.10907 25.9997 0.10907C12.0396 0.10907 0.722656 11.426 0.722656 25.3861C0.722656 39.3462 12.0396 50.6631 25.9997 50.6631Z" fill="white"/>
<path d="M17.6502 30.1193C17.2013 30.1165 16.7681 30.0412 16.3505 29.8935C15.9357 29.7457 15.5636 29.5057 15.234 29.1733C14.9045 28.8409 14.6431 28.4006 14.4499 27.8523C14.2596 27.304 14.1644 26.6307 14.1644 25.8324C14.1672 25.0994 14.2511 24.4446 14.4158 23.8679C14.5834 23.2884 14.8221 22.7969 15.1317 22.3935C15.4442 21.9901 15.8178 21.6832 16.2525 21.473C16.6871 21.2599 17.1743 21.1534 17.7141 21.1534C18.2965 21.1534 18.8107 21.267 19.2567 21.4943C19.7028 21.7187 20.0607 22.0241 20.3306 22.4105C20.6033 22.7969 20.7681 23.2301 20.8249 23.7102H19.0053C18.9343 23.4062 18.7851 23.1676 18.5579 22.9943C18.3306 22.821 18.0493 22.7344 17.7141 22.7344C17.1459 22.7344 16.7141 22.9815 16.4187 23.4759C16.1261 23.9702 15.9769 24.642 15.9712 25.4915H16.0309C16.1616 25.233 16.3377 25.0128 16.5593 24.831C16.7837 24.6463 17.038 24.5057 17.3221 24.4091C17.609 24.3097 17.9116 24.2599 18.2297 24.2599C18.7468 24.2599 19.207 24.3821 19.6104 24.6264C20.0138 24.8679 20.332 25.2003 20.565 25.6236C20.7979 26.0469 20.9144 26.5312 20.9144 27.0767C20.9144 27.6676 20.7766 28.1932 20.5011 28.6534C20.2283 29.1136 19.8462 29.4744 19.3547 29.7358C18.8661 29.9943 18.2979 30.1222 17.6502 30.1193ZM17.6417 28.6705C17.9258 28.6705 18.18 28.6023 18.4045 28.4659C18.6289 28.3295 18.805 28.1449 18.9329 27.9119C19.0607 27.679 19.1246 27.4176 19.1246 27.1278C19.1246 26.8381 19.0607 26.5781 18.9329 26.348C18.8079 26.1179 18.6346 25.9347 18.413 25.7983C18.1914 25.6619 17.9386 25.5938 17.6545 25.5938C17.4414 25.5938 17.244 25.6335 17.0621 25.7131C16.8832 25.7926 16.7255 25.9034 16.5891 26.0455C16.4556 26.1875 16.3505 26.3523 16.2738 26.5398C16.1971 26.7244 16.1587 26.9219 16.1587 27.1321C16.1587 27.4134 16.2226 27.6705 16.3505 27.9034C16.4812 28.1364 16.6573 28.3224 16.8789 28.4616C17.1033 28.6009 17.3576 28.6705 17.6417 28.6705ZM22.0905 28.4659V27.0128L25.734 21.2727H26.9869V23.2841H26.2454L23.9485 26.919V26.9872H29.1261V28.4659H22.0905ZM26.2795 30V28.0227L26.3136 27.3793V21.2727H28.0437V30H26.2795ZM35.1324 28.3636V27.9034C35.1324 27.554 35.2063 27.233 35.354 26.9403C35.5046 26.6449 35.7219 26.4091 36.006 26.233C36.293 26.054 36.6424 25.9645 37.0543 25.9645C37.4719 25.9645 37.8228 26.0526 38.1069 26.2287C38.3938 26.4048 38.6097 26.6406 38.7546 26.9361C38.9023 27.2287 38.9762 27.5511 38.9762 27.9034V28.3636C38.9762 28.7131 38.9023 29.0355 38.7546 29.331C38.6069 29.6236 38.3895 29.858 38.1026 30.0341C37.8157 30.2131 37.4663 30.3026 37.0543 30.3026C36.6367 30.3026 36.2859 30.2131 36.0018 30.0341C35.7177 29.858 35.5018 29.6236 35.354 29.331C35.2063 29.0355 35.1324 28.7131 35.1324 28.3636ZM36.3725 27.9034V28.3636C36.3725 28.5653 36.4208 28.7557 36.5174 28.9347C36.6168 29.1136 36.7958 29.2031 37.0543 29.2031C37.3128 29.2031 37.489 29.1151 37.5827 28.9389C37.6793 28.7628 37.7276 28.571 37.7276 28.3636V27.9034C37.7276 27.696 37.6822 27.5028 37.5913 27.3239C37.5003 27.1449 37.3214 27.0554 37.0543 27.0554C36.7986 27.0554 36.6211 27.1449 36.5217 27.3239C36.4222 27.5028 36.3725 27.696 36.3725 27.9034ZM30.6538 23.3693V22.9091C30.6538 22.5568 30.729 22.2344 30.8796 21.9418C31.0302 21.6463 31.2475 21.4105 31.5316 21.2344C31.8185 21.0582 32.1651 20.9702 32.5714 20.9702C32.9918 20.9702 33.3441 21.0582 33.6282 21.2344C33.9123 21.4105 34.1282 21.6463 34.2759 21.9418C34.4236 22.2344 34.4975 22.5568 34.4975 22.9091V23.3693C34.4975 23.7216 34.4222 24.044 34.2717 24.3366C34.1239 24.6293 33.9066 24.8636 33.6197 25.0398C33.3356 25.2131 32.9861 25.2997 32.5714 25.2997C32.1566 25.2997 31.8057 25.2116 31.5188 25.0355C31.2347 24.8565 31.0188 24.6222 30.8711 24.3324C30.7262 24.0398 30.6538 23.7187 30.6538 23.3693ZM31.9023 22.9091V23.3693C31.9023 23.5767 31.9506 23.7685 32.0472 23.9446C32.1467 24.1207 32.3214 24.2088 32.5714 24.2088C32.8327 24.2088 33.0103 24.1207 33.104 23.9446C33.2006 23.7685 33.2489 23.5767 33.2489 23.3693V22.9091C33.2489 22.7017 33.2035 22.5085 33.1126 22.3295C33.0217 22.1506 32.8413 22.0611 32.5714 22.0611C32.3185 22.0611 32.1438 22.152 32.0472 22.3338C31.9506 22.5156 31.9023 22.7074 31.9023 22.9091ZM31.2163 30L37.2163 21.2727H38.3327L32.3327 30H31.2163Z" fill="black"/>
<path d="M19.5254 2.58576C19.273 1.73714 19.7554 0.839273 20.6183 0.64112C24.2732 -0.198157 28.0761 -0.215089 31.7501 0.60013C35.9467 1.53132 39.8366 3.5175 43.0517 6.37086C46.2669 9.22422 48.7012 12.8505 50.1245 16.9068C51.5477 20.963 51.9129 25.3153 51.1855 29.552C50.4581 33.7888 48.6621 37.77 45.9673 41.1192C43.2725 44.4684 39.7681 47.075 35.7853 48.6925C31.8024 50.31 27.4729 50.885 23.206 50.363C19.4705 49.906 15.891 48.6216 12.7254 46.6112C11.978 46.1366 11.8227 45.1292 12.3437 44.4134C12.8648 43.6976 13.8647 43.5452 14.6164 44.0129C17.3378 45.7061 20.4012 46.7898 23.5953 47.1805C27.3209 47.6363 31.1013 47.1343 34.5789 45.722C38.0564 44.3096 41.1164 42.0337 43.4693 39.1093C45.8222 36.185 47.3904 32.7088 48.0255 29.0095C48.6607 25.3102 48.3418 21.51 47.0991 17.9683C45.8564 14.4266 43.7309 11.2603 40.9236 8.7689C38.1162 6.27749 34.7199 4.54327 31.0555 3.7302C27.914 3.03313 24.6646 3.03288 21.5343 3.72138C20.6696 3.91158 19.7778 3.43437 19.5254 2.58576Z" fill="#00CC39"/>
</g>
<defs>
<clipPath id="clip0_34_514">
<rect width="50.5541" height="50.5541" fill="white" transform="translate(0.722778 0.108276)"/>
</clipPath>
</defs>
</svg>
