<svg width="52" height="52" viewBox="0 0 52 52" fill="none" xmlns="http://www.w3.org/2000/svg">
<g clip-path="url(#clip0_34_493)">
<path fill-rule="evenodd" clip-rule="evenodd" d="M25.9997 51.1091C39.9598 51.1091 51.2767 39.7921 51.2767 25.832C51.2767 11.8719 39.9598 0.554993 25.9997 0.554993C12.0396 0.554993 0.722656 11.8719 0.722656 25.832C0.722656 39.7921 12.0396 51.1091 25.9997 51.1091Z" fill="white"/>
<path d="M21.6191 30.1918C20.8862 30.1889 20.2555 30.0085 19.7271 29.6506C19.2015 29.2926 18.7967 28.7741 18.5126 28.0952C18.2313 27.4162 18.0921 26.5994 18.095 25.6449C18.095 24.6932 18.2356 23.8821 18.5169 23.2116C18.8009 22.5412 19.2058 22.0312 19.7313 21.6818C20.2598 21.3295 20.889 21.1534 21.6191 21.1534C22.3492 21.1534 22.9771 21.3295 23.5027 21.6818C24.0311 22.0341 24.4373 22.5455 24.7214 23.2159C25.0055 23.8835 25.1461 24.6932 25.1433 25.6449C25.1433 26.6023 25.0012 27.4205 24.7171 28.0994C24.4359 28.7784 24.0325 29.2969 23.5069 29.6548C22.9813 30.0128 22.3521 30.1918 21.6191 30.1918ZM21.6191 28.6619C22.1191 28.6619 22.5183 28.4105 22.8166 27.9077C23.1149 27.4048 23.2626 26.6506 23.2598 25.6449C23.2598 24.983 23.1916 24.4318 23.0552 23.9915C22.9217 23.5511 22.7313 23.2202 22.4842 22.9986C22.2399 22.777 21.9515 22.6662 21.6191 22.6662C21.122 22.6662 20.7242 22.9148 20.4259 23.4119C20.1277 23.9091 19.9771 24.6534 19.9742 25.6449C19.9742 26.3153 20.041 26.875 20.1745 27.3239C20.3109 27.7699 20.5027 28.1051 20.7498 28.3295C20.997 28.5511 21.2867 28.6619 21.6191 28.6619ZM31.236 28.3636V27.9034C31.236 27.554 31.3098 27.233 31.4576 26.9403C31.6081 26.6449 31.8255 26.4091 32.1095 26.233C32.3965 26.054 32.7459 25.9645 33.1578 25.9645C33.5755 25.9645 33.9263 26.0526 34.2104 26.2287C34.4973 26.4048 34.7132 26.6406 34.8581 26.9361C35.0058 27.2287 35.0797 27.5511 35.0797 27.9034V28.3636C35.0797 28.7131 35.0058 29.0355 34.8581 29.331C34.7104 29.6236 34.4931 29.858 34.2061 30.0341C33.9192 30.2131 33.5698 30.3026 33.1578 30.3026C32.7402 30.3026 32.3894 30.2131 32.1053 30.0341C31.8212 29.858 31.6053 29.6236 31.4576 29.331C31.3098 29.0355 31.236 28.7131 31.236 28.3636ZM32.476 27.9034V28.3636C32.476 28.5653 32.5243 28.7557 32.6209 28.9347C32.7203 29.1136 32.8993 29.2031 33.1578 29.2031C33.4164 29.2031 33.5925 29.1151 33.6862 28.9389C33.7828 28.7628 33.8311 28.571 33.8311 28.3636V27.9034C33.8311 27.696 33.7857 27.5028 33.6948 27.3239C33.6039 27.1449 33.4249 27.0554 33.1578 27.0554C32.9022 27.0554 32.7246 27.1449 32.6252 27.3239C32.5257 27.5028 32.476 27.696 32.476 27.9034ZM26.7573 23.3693V22.9091C26.7573 22.5568 26.8326 22.2344 26.9831 21.9418C27.1337 21.6463 27.351 21.4105 27.6351 21.2344C27.922 21.0582 28.2686 20.9702 28.6749 20.9702C29.0953 20.9702 29.4476 21.0582 29.7317 21.2344C30.0158 21.4105 30.2317 21.6463 30.3794 21.9418C30.5272 22.2344 30.601 22.5568 30.601 22.9091V23.3693C30.601 23.7216 30.5257 24.044 30.3752 24.3366C30.2274 24.6293 30.0101 24.8636 29.7232 25.0398C29.4391 25.2131 29.0897 25.2997 28.6749 25.2997C28.2601 25.2997 27.9093 25.2116 27.6223 25.0355C27.3382 24.8565 27.1223 24.6222 26.9746 24.3324C26.8297 24.0398 26.7573 23.7187 26.7573 23.3693ZM28.0058 22.9091V23.3693C28.0058 23.5767 28.0541 23.7685 28.1507 23.9446C28.2502 24.1207 28.4249 24.2088 28.6749 24.2088C28.9362 24.2088 29.1138 24.1207 29.2076 23.9446C29.3041 23.7685 29.3524 23.5767 29.3524 23.3693V22.9091C29.3524 22.7017 29.307 22.5085 29.2161 22.3295C29.1252 22.1506 28.9448 22.0611 28.6749 22.0611C28.422 22.0611 28.2473 22.152 28.1507 22.3338C28.0541 22.5156 28.0058 22.7074 28.0058 22.9091ZM27.3198 30L33.3198 21.2727H34.4362L28.4362 30H27.3198Z" fill="black"/>
<path fill-rule="evenodd" clip-rule="evenodd" d="M25.9947 0.554857C24.9843 0.554857 24.1653 1.37492 24.1653 2.38653C24.1653 3.39813 24.9843 4.21819 25.9947 4.21819C37.8686 4.21819 47.5117 13.8198 47.5816 25.7017C47.5875 26.7133 48.4114 27.5285 49.4217 27.5226C50.4321 27.5166 51.2463 26.6917 51.2404 25.6801C51.1587 11.7837 39.8812 0.554857 25.9947 0.554857Z" fill="#00CC39"/>
</g>
<defs>
<clipPath id="clip0_34_493">
<rect width="50.5541" height="50.5541" fill="white" transform="translate(0.722778 0.554199)"/>
</clipPath>
</defs>
</svg>
