<svg width="52" height="51" viewBox="0 0 52 51" fill="none" xmlns="http://www.w3.org/2000/svg">
<g clip-path="url(#clip0_34_485)">
<path fill-rule="evenodd" clip-rule="evenodd" d="M25.9997 50.555C39.9598 50.555 51.2767 39.2381 51.2767 25.2779C51.2767 11.3178 39.9598 0.000915527 25.9997 0.000915527C12.0396 0.000915527 0.722656 11.3178 0.722656 25.2779C0.722656 39.2381 12.0396 50.555 25.9997 50.555Z" fill="white"/>
<path d="M14.9277 23.2727V32H13.0826V25.0241H13.0314L11.0328 26.277V24.6406L13.1933 23.2727H14.9277ZM20.4238 32.1918C19.6909 32.1889 19.0602 32.0085 18.5318 31.6506C18.0062 31.2926 17.6014 30.7741 17.3173 30.0952C17.036 29.4162 16.8968 28.5994 16.8997 27.6449C16.8997 26.6932 17.0403 25.8821 17.3215 25.2116C17.6056 24.5412 18.0105 24.0312 18.536 23.6818C19.0644 23.3295 19.6937 23.1534 20.4238 23.1534C21.1539 23.1534 21.7818 23.3295 22.3073 23.6818C22.8357 24.0341 23.242 24.5455 23.5261 25.2159C23.8102 25.8835 23.9508 26.6932 23.948 27.6449C23.948 28.6023 23.8059 29.4205 23.5218 30.0994C23.2406 30.7784 22.8372 31.2969 22.3116 31.6548C21.786 32.0128 21.1568 32.1918 20.4238 32.1918ZM20.4238 30.6619C20.9238 30.6619 21.323 30.4105 21.6213 29.9077C21.9196 29.4048 22.0673 28.6506 22.0644 27.6449C22.0644 26.983 21.9963 26.4318 21.8599 25.9915C21.7264 25.5511 21.536 25.2202 21.2889 24.9986C21.0446 24.777 20.7562 24.6662 20.4238 24.6662C19.9267 24.6662 19.5289 24.9148 19.2306 25.4119C18.9323 25.9091 18.7818 26.6534 18.7789 27.6449C18.7789 28.3153 18.8457 28.875 18.9792 29.3239C19.1156 29.7699 19.3073 30.1051 19.5545 30.3295C19.8017 30.5511 20.0914 30.6619 20.4238 30.6619ZM28.6855 32.1918C27.9526 32.1889 27.3219 32.0085 26.7935 31.6506C26.2679 31.2926 25.8631 30.7741 25.579 30.0952C25.2978 29.4162 25.1585 28.5994 25.1614 27.6449C25.1614 26.6932 25.302 25.8821 25.5833 25.2116C25.8674 24.5412 26.2722 24.0312 26.7978 23.6818C27.3262 23.3295 27.9554 23.1534 28.6855 23.1534C29.4156 23.1534 30.0435 23.3295 30.5691 23.6818C31.0975 24.0341 31.5037 24.5455 31.7878 25.2159C32.0719 25.8835 32.2125 26.6932 32.2097 27.6449C32.2097 28.6023 32.0676 29.4205 31.7835 30.0994C31.5023 30.7784 31.0989 31.2969 30.5733 31.6548C30.0478 32.0128 29.4185 32.1918 28.6855 32.1918ZM28.6855 30.6619C29.1855 30.6619 29.5847 30.4105 29.883 29.9077C30.1813 29.4048 30.329 28.6506 30.3262 27.6449C30.3262 26.983 30.258 26.4318 30.1216 25.9915C29.9881 25.5511 29.7978 25.2202 29.5506 24.9986C29.3063 24.777 29.0179 24.6662 28.6855 24.6662C28.1884 24.6662 27.7906 24.9148 27.4924 25.4119C27.1941 25.9091 27.0435 26.6534 27.0406 27.6449C27.0406 28.3153 27.1074 28.875 27.2409 29.3239C27.3773 29.7699 27.5691 30.1051 27.8162 30.3295C28.0634 30.5511 28.3531 30.6619 28.6855 30.6619ZM38.3024 30.3636V29.9034C38.3024 29.554 38.3762 29.233 38.524 28.9403C38.6745 28.6449 38.8919 28.4091 39.1759 28.233C39.4629 28.054 39.8123 27.9645 40.2242 27.9645C40.6419 27.9645 40.9927 28.0526 41.2768 28.2287C41.5637 28.4048 41.7796 28.6406 41.9245 28.9361C42.0723 29.2287 42.1461 29.5511 42.1461 29.9034V30.3636C42.1461 30.7131 42.0723 31.0355 41.9245 31.331C41.7768 31.6236 41.5595 31.858 41.2725 32.0341C40.9856 32.2131 40.6362 32.3026 40.2242 32.3026C39.8066 32.3026 39.4558 32.2131 39.1717 32.0341C38.8876 31.858 38.6717 31.6236 38.524 31.331C38.3762 31.0355 38.3024 30.7131 38.3024 30.3636ZM39.5424 29.9034V30.3636C39.5424 30.5653 39.5907 30.7557 39.6873 30.9347C39.7867 31.1136 39.9657 31.2031 40.2242 31.2031C40.4828 31.2031 40.6589 31.1151 40.7527 30.9389C40.8492 30.7628 40.8975 30.571 40.8975 30.3636V29.9034C40.8975 29.696 40.8521 29.5028 40.7612 29.3239C40.6703 29.1449 40.4913 29.0554 40.2242 29.0554C39.9686 29.0554 39.791 29.1449 39.6916 29.3239C39.5921 29.5028 39.5424 29.696 39.5424 29.9034ZM33.8237 25.3693V24.9091C33.8237 24.5568 33.899 24.2344 34.0495 23.9418C34.2001 23.6463 34.4174 23.4105 34.7015 23.2344C34.9884 23.0582 35.335 22.9702 35.7413 22.9702C36.1617 22.9702 36.514 23.0582 36.7981 23.2344C37.0822 23.4105 37.2981 23.6463 37.4458 23.9418C37.5936 24.2344 37.6674 24.5568 37.6674 24.9091V25.3693C37.6674 25.7216 37.5921 26.044 37.4416 26.3366C37.2938 26.6293 37.0765 26.8636 36.7896 27.0398C36.5055 27.2131 36.1561 27.2997 35.7413 27.2997C35.3265 27.2997 34.9757 27.2116 34.6887 27.0355C34.4046 26.8565 34.1887 26.6222 34.041 26.3324C33.8961 26.0398 33.8237 25.7187 33.8237 25.3693ZM35.0723 24.9091V25.3693C35.0723 25.5767 35.1206 25.7685 35.2171 25.9446C35.3166 26.1207 35.4913 26.2088 35.7413 26.2088C36.0027 26.2088 36.1802 26.1207 36.274 25.9446C36.3706 25.7685 36.4188 25.5767 36.4188 25.3693V24.9091C36.4188 24.7017 36.3734 24.5085 36.2825 24.3295C36.1916 24.1506 36.0112 24.0611 35.7413 24.0611C35.4884 24.0611 35.3137 24.152 35.2171 24.3338C35.1206 24.5156 35.0723 24.7074 35.0723 24.9091ZM34.3862 32L40.3862 23.2727H41.5027L35.5027 32H34.3862Z" fill="black"/>
<path d="M51.55 25.275C51.55 39.234 40.234 50.55 26.275 50.55C12.316 50.55 1 39.234 1 25.275C1 11.316 12.316 0 26.275 0C40.234 0 51.55 11.316 51.55 25.275ZM4.2062 25.275C4.2062 37.4633 14.0867 47.3438 26.275 47.3438C38.4633 47.3438 48.3438 37.4633 48.3438 25.275C48.3438 13.0867 38.4633 3.2062 26.275 3.2062C14.0867 3.2062 4.2062 13.0867 4.2062 25.275Z" fill="#00CC39"/>
</g>
<defs>
<clipPath id="clip0_34_485">
<rect width="50.5541" height="50.5541" fill="white" transform="translate(0.722778 0.00012207)"/>
</clipPath>
</defs>
</svg>
