<svg width="205" height="41" viewBox="0 0 205 41" fill="none" xmlns="http://www.w3.org/2000/svg">
<path d="M30.753 17.9937C30.1803 18.5799 29.7417 19.2874 29.4685 20.0659C29.1952 20.8443 29.0941 21.6744 29.1722 22.4971L29.145 22.4694C29.2254 23.4378 29.097 24.4124 28.7689 25.3252C28.4409 26.2379 27.9209 27.0668 27.2454 27.754C26.57 28.4412 25.7552 28.9702 24.858 29.304C23.9609 29.6378 23.0029 29.7683 22.051 29.6866L22.0782 29.7143C20.9396 29.6064 19.796 29.8585 18.8033 30.4362C17.8107 31.0138 17.0173 31.8888 16.5314 32.942C16.0454 33.9952 15.8906 35.1752 16.088 36.3211C16.2854 37.4671 16.8254 38.5232 17.6344 39.3455C18.4434 40.1678 19.482 40.7162 20.6086 40.916C21.7351 41.1158 22.8949 40.9572 23.9296 40.4619C24.9643 39.9666 25.8237 39.1586 26.3906 38.1482C26.9575 37.1378 27.2042 35.9741 27.0972 34.8158L27.126 34.8435C27.0456 33.8751 27.1739 32.9005 27.502 31.9877C27.8301 31.075 28.3501 30.2461 29.0255 29.5589C29.701 28.8717 30.5158 28.3427 31.4129 28.0089C32.3101 27.6751 33.2681 27.5446 34.2199 27.6263L34.1912 27.5986C35.1213 27.6837 36.0575 27.5286 36.913 27.1476C37.7685 26.7666 38.5156 26.172 39.0851 25.419C39.6546 24.666 40.0281 23.779 40.1709 22.8401C40.3136 21.9011 40.2212 20.9408 39.902 20.0479C39.5828 19.155 39.0472 18.3586 38.3449 17.7323C37.6426 17.1061 36.7963 16.6704 35.8844 16.4655C34.9725 16.2607 34.0245 16.2933 33.1283 16.5605C32.2321 16.8276 31.4166 17.3206 30.7576 17.9937H30.753Z" fill="white"/>
<path d="M19.6043 26.0887L19.5756 26.0611C20.3846 26.144 21.2016 26.043 21.9676 25.7653C22.7336 25.4876 23.4293 25.0403 24.0045 24.4555C24.5797 23.8708 25.0199 23.1633 25.2934 22.3843C25.567 21.6052 25.6669 20.7741 25.586 19.9509L25.6147 19.9786C25.5343 19.0102 25.6627 18.0356 25.9908 17.1229C26.3188 16.2101 26.8388 15.3812 27.5143 14.694C28.1897 14.0068 29.0045 13.4778 29.9017 13.1441C30.7988 12.8103 31.7568 12.6797 32.7087 12.7614L32.6799 12.7338C33.8187 12.8426 34.9627 12.5913 35.9559 12.0144C36.9491 11.4374 37.7432 10.5627 38.2299 9.50973C38.7165 8.45673 38.8721 7.27663 38.6753 6.13039C38.4784 4.98415 37.9389 3.92758 37.1301 3.1048C36.3214 2.28201 35.2828 1.73306 34.1562 1.53283C33.0295 1.3326 31.8695 1.49083 30.8345 1.98594C29.7995 2.48106 28.9397 3.28894 28.3726 4.29942C27.8055 5.30989 27.5585 6.47375 27.6655 7.63224L27.6383 7.60303C27.7189 8.57151 27.5907 9.54621 27.2627 10.4591C26.9347 11.3719 26.4148 12.201 25.7393 12.8882C25.0637 13.5755 24.2489 14.1044 23.3516 14.4381C22.4543 14.7718 21.4962 14.9022 20.5443 14.8202L20.5715 14.8494C19.7625 14.7665 18.9454 14.8675 18.1795 15.1452C17.4135 15.4228 16.7178 15.8702 16.1426 16.455C15.5674 17.0397 15.1271 17.7472 14.8536 18.5262C14.5801 19.3053 14.4802 20.1364 14.5611 20.9595L14.5339 20.9319C14.614 21.9002 14.4855 22.8747 14.1573 23.7873C13.8291 24.6999 13.3092 25.5287 12.6337 26.2159C11.9583 26.903 11.1437 27.432 10.2466 27.7659C9.34959 28.0997 8.39174 28.2305 7.43992 28.149L7.46712 28.1767C6.32839 28.0679 5.1844 28.3191 4.19117 28.8961C3.19795 29.4731 2.40385 30.3477 1.91718 31.4007C1.43052 32.4538 1.27499 33.6339 1.4718 34.7801C1.66862 35.9263 2.2082 36.9829 3.01694 37.8057C3.82569 38.6285 4.86422 39.1774 5.9909 39.3776C7.11758 39.5779 8.27754 39.4196 9.31257 38.9245C10.3476 38.4294 11.2073 37.6215 11.7744 36.6111C12.3416 35.6006 12.5885 34.4367 12.4816 33.2782L12.5103 33.3059C12.4299 32.3375 12.5583 31.3629 12.8864 30.4502C13.2145 29.5374 13.7344 28.7085 14.4099 28.0213C15.0854 27.3341 15.9001 26.8052 16.7973 26.4714C17.6944 26.1376 18.6524 26.007 19.6043 26.0887Z" fill="white"/>
<path d="M9.47562 23.0029C10.0484 22.4168 10.487 21.7093 10.76 20.9308C11.033 20.1523 11.1337 19.3221 11.0549 18.4995L11.0836 18.5272C11.0032 17.5585 11.1316 16.5836 11.4599 15.6706C11.7882 14.7577 12.3084 13.9286 12.9842 13.2413C13.66 12.5541 14.4751 12.0252 15.3727 11.6916C16.2702 11.358 17.2285 11.2278 18.1806 11.31L18.1519 11.2823C19.2903 11.3908 20.4338 11.1395 21.4265 10.5625C22.4193 9.9856 23.213 9.11117 23.6994 8.05849C24.1857 7.00582 24.3411 5.82614 24.1443 4.68033C23.9475 3.53453 23.4081 2.47836 22.5996 1.65588C21.7912 0.833389 20.7531 0.284615 19.6268 0.0843924C18.5006 -0.115831 17.341 0.042244 16.3063 0.537057C15.2716 1.03187 14.4121 1.83933 13.845 2.84934C13.2779 3.85934 13.0308 5.02272 13.1375 6.18083L13.1103 6.15315C13.1906 7.12156 13.0623 8.09615 12.7342 9.00889C12.4061 9.92163 11.8862 10.7505 11.2107 11.4377C10.5352 12.1249 9.72045 12.6539 8.82328 12.9877C7.92612 13.3215 6.96817 13.4521 6.01628 13.3703L6.04349 13.398C5.11339 13.3131 4.1773 13.4685 3.32194 13.8497C2.46658 14.2309 1.71963 14.8255 1.15031 15.5786C0.580992 16.3316 0.207723 17.2187 0.065095 18.1576C-0.0775334 19.0965 0.0150921 20.0568 0.334389 20.9496C0.653686 21.8424 1.18932 22.6387 1.89167 23.2648C2.59401 23.8909 3.44033 24.3266 4.3522 24.5313C5.26408 24.7361 6.21201 24.7034 7.10814 24.4362C8.00428 24.169 8.81963 23.676 9.47864 23.0029H9.47562Z" fill="white"/>
<path d="M56.2908 7.66761H60.7793V29.8895H56.2908V7.66761Z" fill="white"/>
<path d="M63.3213 22.2803C63.315 20.6833 63.7747 19.1204 64.6422 17.7895C65.5097 16.4586 66.746 15.4195 68.1944 14.804C69.6428 14.1884 71.2382 14.024 72.7785 14.3317C74.3188 14.6393 75.7347 15.4051 76.8469 16.532C77.959 17.659 78.7174 19.0964 79.026 20.6622C79.3345 22.228 79.1794 23.8517 78.5801 25.3278C77.9809 26.8038 76.9645 28.0656 75.6598 28.9535C74.3551 29.8414 72.8207 30.3154 71.251 30.3154C70.2091 30.3275 69.1752 30.1281 68.2098 29.729C67.2444 29.3299 66.367 28.739 65.6286 27.9909C64.8903 27.2428 64.306 26.3524 63.9099 25.3719C63.5137 24.3914 63.3136 23.3404 63.3213 22.2803ZM74.6922 22.2803C74.6735 21.5919 74.4557 20.9245 74.0662 20.3613C73.6766 19.7982 73.1326 19.3644 72.502 19.1141C71.8714 18.8639 71.1823 18.8083 70.5209 18.9543C69.8594 19.1003 69.2549 19.4414 68.783 19.9351C68.311 20.4287 67.9926 21.0529 67.8674 21.7296C67.7423 22.4064 67.816 23.1056 68.0794 23.74C68.3428 24.3743 68.7841 24.9156 69.3482 25.2962C69.9123 25.6767 70.5742 25.8797 71.251 25.8796C71.7146 25.8922 72.1756 25.807 72.6052 25.6292C73.0347 25.4515 73.4234 25.1851 73.7467 24.847C74.0701 24.5088 74.321 24.1061 74.4837 23.6644C74.6464 23.2226 74.7174 22.7513 74.6922 22.2803Z" fill="white"/>
<path d="M97.0698 14.6695V29.1223C97.0698 34.2361 93.1495 36.3979 89.1703 36.3979C87.7693 36.5046 86.3664 36.2167 85.1156 35.5657C83.8648 34.9148 82.8143 33.926 82.0794 32.7078L85.909 30.4553C86.2179 31.0904 86.71 31.6142 87.3196 31.9569C87.9292 32.2995 88.6271 32.4446 89.3199 32.3726C89.7627 32.4351 90.2137 32.3954 90.6394 32.2566C91.0651 32.1177 91.4546 31.8833 91.7793 31.5706C92.1039 31.258 92.3552 30.875 92.5147 30.4502C92.6742 30.0253 92.7378 29.5694 92.7007 29.1162V27.7247C92.1751 28.379 91.5061 28.8988 90.7473 29.2424C89.9885 29.5861 89.1612 29.744 88.3316 29.7035C86.3575 29.6402 84.4852 28.7978 83.1108 27.3548C81.7364 25.9118 80.9679 23.9813 80.9679 21.972C80.9679 19.9627 81.7364 18.0322 83.1108 16.5892C84.4852 15.1462 86.3575 14.3039 88.3316 14.2406C89.1612 14.2001 89.9885 14.358 90.7473 14.7016C91.5061 15.0453 92.1751 15.5651 92.7007 16.2194V14.6665L97.0698 14.6695ZM92.7022 21.9743C92.7324 21.2384 92.5454 20.5101 92.1653 19.8832C91.7852 19.2564 91.2293 18.7595 90.5693 18.4567C89.9093 18.1539 89.1754 18.059 88.4619 18.1842C87.7484 18.3093 87.0881 18.6489 86.5659 19.1591C86.0437 19.6692 85.6836 20.3267 85.5318 21.0469C85.38 21.7671 85.4435 22.5171 85.7142 23.2002C85.9849 23.8834 86.4504 24.4685 87.0507 24.8802C87.651 25.292 88.3587 25.5115 89.0827 25.5106C89.5543 25.5441 90.0275 25.4768 90.472 25.3129C90.9164 25.149 91.3222 24.8922 91.6632 24.559C92.0042 24.2259 92.2728 23.8238 92.4518 23.3786C92.6307 22.9334 92.716 22.4551 92.7022 21.9743Z" fill="white"/>
<path d="M99.6119 22.2803C99.6056 20.6833 100.065 19.1204 100.933 17.7895C101.8 16.4586 103.037 15.4195 104.485 14.804C105.933 14.1884 107.529 14.024 109.069 14.3317C110.609 14.6393 112.025 15.4051 113.137 16.532C114.25 17.659 115.008 19.0964 115.317 20.6622C115.625 22.228 115.47 23.8517 114.871 25.3278C114.271 26.8038 113.255 28.0656 111.95 28.9535C110.646 29.8414 109.111 30.3154 107.542 30.3154C106.5 30.3275 105.466 30.1281 104.5 29.729C103.535 29.3299 102.658 28.739 101.919 27.9909C101.181 27.2428 100.597 26.3524 100.2 25.3719C99.8042 24.3914 99.6042 23.3404 99.6119 22.2803ZM110.983 22.2803C110.964 21.5919 110.746 20.9245 110.357 20.3613C109.967 19.7982 109.423 19.3644 108.793 19.1141C108.162 18.8639 107.473 18.8083 106.811 18.9543C106.15 19.1003 105.545 19.4414 105.074 19.9351C104.602 20.4287 104.283 21.0529 104.158 21.7296C104.033 22.4064 104.107 23.1056 104.37 23.74C104.633 24.3743 105.075 24.9156 105.639 25.2962C106.203 25.6767 106.865 25.8797 107.542 25.8796C108.005 25.8922 108.466 25.807 108.896 25.6292C109.325 25.4515 109.714 25.1851 110.037 24.847C110.361 24.5088 110.612 24.1061 110.774 23.6644C110.937 23.2226 111.008 22.7513 110.983 22.2803Z" fill="white"/>
<path d="M117.564 10.5904C117.564 10.0485 117.722 9.51882 118.018 9.06825C118.314 8.61768 118.735 8.26649 119.227 8.05912C119.719 7.85175 120.261 7.79749 120.783 7.9032C121.305 8.00892 121.785 8.26988 122.162 8.65305C122.539 9.03623 122.795 9.52443 122.899 10.0559C123.003 10.5874 122.95 11.1383 122.746 11.6389C122.542 12.1396 122.197 12.5675 121.754 12.8686C121.311 13.1696 120.79 13.3303 120.258 13.3303C119.546 13.3231 118.865 13.0321 118.361 12.5199C117.858 12.0076 117.572 11.3149 117.564 10.5904ZM118.018 14.6695H122.508V29.891H118.012L118.018 14.6695Z" fill="white"/>
<path d="M141.889 22.2803C141.94 23.2863 141.796 24.2928 141.465 25.2419C141.133 26.191 140.62 27.064 139.955 27.8107C139.291 28.5575 138.487 29.1632 137.592 29.593C136.696 30.0229 135.726 30.2684 134.737 30.3154C133.905 30.3616 133.074 30.2189 132.303 29.8976C131.532 29.5764 130.841 29.0846 130.28 28.4581V35.9781H125.792V14.6695H130.28V16.0994C130.842 15.4733 131.533 14.982 132.303 14.661C133.074 14.3401 133.906 14.1975 134.737 14.2436C135.726 14.2905 136.697 14.5359 137.593 14.9658C138.488 15.3956 139.292 16.0015 139.956 16.7484C140.621 17.4953 141.134 18.3686 141.465 19.318C141.797 20.2674 141.941 21.2741 141.889 22.2803ZM137.4 22.2803C137.383 21.5679 137.159 20.8766 136.757 20.2929C136.355 19.7093 135.793 19.2591 135.141 18.9988C134.489 18.7386 133.776 18.6797 133.091 18.8297C132.406 18.9797 131.78 19.3318 131.291 19.842C130.802 20.3522 130.472 20.9978 130.342 21.698C130.212 22.3981 130.288 23.1218 130.56 23.7784C130.832 24.4351 131.288 24.9954 131.872 25.3894C132.456 25.7834 133.141 25.9935 133.841 25.9934C134.322 26.0152 134.802 25.9333 135.249 25.7532C135.697 25.573 136.102 25.2986 136.438 24.948C136.774 24.5974 137.034 24.1785 137.199 23.7188C137.365 23.259 137.434 22.7688 137.4 22.2803Z" fill="white"/>
<path d="M155.74 25.3231C155.74 28.824 152.749 30.3154 149.518 30.3154C148.212 30.4357 146.901 30.1548 145.754 29.5091C144.607 28.8633 143.677 27.8823 143.084 26.693L146.973 24.4405C147.13 24.9903 147.468 25.4685 147.93 25.7953C148.392 26.1222 148.95 26.2778 149.512 26.2364C150.588 26.2364 151.127 25.9012 151.127 25.2939C151.127 23.618 143.766 24.502 143.766 19.236C143.766 15.9165 146.519 14.2436 149.631 14.2436C150.801 14.206 151.959 14.4882 152.985 15.061C154.011 15.6338 154.867 16.4761 155.465 17.5001L151.635 19.6004C151.467 19.2017 151.187 18.8621 150.831 18.6239C150.475 18.3858 150.057 18.2596 149.631 18.2612C148.853 18.2612 148.374 18.5687 148.374 19.113C148.38 20.8489 155.74 19.6911 155.74 25.3231Z" fill="white"/>
<path d="M172.135 14.6695V29.891H167.647V28.4596C167.129 29.0912 166.472 29.5889 165.728 29.9118C164.985 30.2346 164.176 30.3735 163.37 30.3169C160.347 30.3169 157.778 28.126 157.778 24.0131V14.6695H162.267V23.3442C162.229 23.7068 162.27 24.0733 162.386 24.4182C162.501 24.7632 162.69 25.0783 162.937 25.3417C163.185 25.6052 163.486 25.8105 163.82 25.9435C164.153 26.0765 164.512 26.1339 164.869 26.1118C166.515 26.1118 167.652 25.1385 167.652 22.9768V14.6741L172.135 14.6695Z" fill="white"/>
<path d="M197.873 20.5444V29.8895H193.384V20.9396C193.384 19.4174 192.666 18.4442 191.231 18.4442C189.734 18.4442 188.896 19.5097 188.896 21.3055V29.8895H184.409V20.9396C184.409 19.4174 183.691 18.4442 182.254 18.4442C180.757 18.4442 179.92 19.5097 179.92 21.3055V29.8895H175.432V14.668H179.92V16.0672C180.385 15.4464 180.996 14.9542 181.697 14.6354C182.397 14.3166 183.165 14.1814 183.93 14.2421C184.698 14.2039 185.462 14.3688 186.149 14.7207C186.836 15.0726 187.421 15.5995 187.848 16.2501C188.346 15.5695 189.005 15.0283 189.763 14.6771C190.522 14.326 191.356 14.1763 192.187 14.2421C195.622 14.2436 197.873 16.7391 197.873 20.5444Z" fill="white"/>
<path d="M201.669 14.5757C203.509 14.5757 205 13.0585 205 11.187C205 9.31546 203.509 7.79829 201.669 7.79829C199.83 7.79829 198.338 9.31546 198.338 11.187C198.338 13.0585 199.83 14.5757 201.669 14.5757Z" fill="white"/>
</svg>
